<svg width="14" height="14" viewBox="0 0 14 14" fill="none" xmlns="http://www.w3.org/2000/svg">
    <path fill-rule="evenodd" clip-rule="evenodd"
        d="M12.7757 10.6539C12.9828 11.0321 13.2224 11.3316 13.5 11.5H9C9 12.6046 8.10457 13.5 7 13.5C5.89543 13.5 5 12.6046 5 11.5H0.5C0.777643 11.3316 1.01721 11.0321 1.22429 10.6539C2.06 9.13093 2.35714 6.32189 2.35714 5.57732C2.35714 3.52977 3.95429 1.82065 6.07607 1.4306C6.04072 1.10968 6.20868 0.798358 6.50916 0.627868C6.80964 0.457377 7.19036 0.457377 7.49084 0.627868C7.79132 0.798358 7.95928 1.10968 7.92393 1.4306C10.0877 1.83163 11.6426 3.56532 11.6429 5.57732C11.6429 6.32189 11.94 9.13093 12.7757 10.6539ZM7 2.12355L6.25993 2.25978C4.52926 2.58108 3.2859 3.96797 3.28571 5.57732C3.28571 6.10867 3.16129 7.4362 2.8595 8.74342C2.71093 9.39237 2.51036 10.0684 2.24386 10.6539H11.7561C11.4896 10.0684 11.29 9.39322 11.1405 8.74342C10.8387 7.4362 10.7143 6.10867 10.7143 5.57732C10.7137 3.96828 9.4704 2.58187 7.74007 2.26062L7 2.12271V2.12355Z"
        fill="#6C757D" />
</svg>