<svg width="14" height="14" viewBox="0 0 14 14" fill="none" xmlns="http://www.w3.org/2000/svg">
    <path
        d="M3.50082 4.5L1.2 4.5C1.14697 4.5 1.09607 4.52195 1.05857 4.56101C1.02107 4.60007 1 4.65309 1 4.70833L1 11.7917C1 11.8469 1.02107 11.8999 1.05857 11.939C1.09607 11.9781 1.14697 12 1.2 12L6.00004 12C6.16415 11.9998 6.32575 11.9578 6.47058 11.8774L9.25003 10.3333L12.8 10.3333C12.853 10.3333 12.9039 10.3114 12.9414 10.2723C12.9789 10.2333 13 10.1802 13 10.125L13 4.70832C13 4.59328 12.9104 4.49999 12.8 4.49999L12.0982 4.49999L11.3909 2.14611C11.375 2.09337 11.3397 2.04938 11.2927 2.02371C11.2457 1.99814 11.1909 1.99302 11.1403 2.00948L3.50082 4.5ZM10.3418 4.23448L10.7237 4.10994L10.8409 4.50001L7.51881 4.50001L9.97163 3.70034L10.0911 4.09794L10.0912 4.09794C10.1241 4.20778 10.2364 4.26888 10.3417 4.23447L10.3418 4.23448ZM6.00004 11.5833L1.4 11.5833L1.4 10.3333C1.40054 9.84305 1.58518 9.37245 1.91448 9.0221C2.24376 8.67183 2.69162 8.46955 3.16216 8.45867C3.21422 8.46918 3.26806 8.45764 3.31199 8.42677L5.23219 7.07548C5.36397 6.98098 5.52656 6.94527 5.6838 6.97624C5.84094 7.00731 5.97978 7.10236 6.06943 7.24048C6.15898 7.37859 6.19193 7.54824 6.16086 7.71174C6.12978 7.87525 6.03728 8.01903 5.90398 8.11119C5.90229 8.1124 5.9005 8.1138 5.89881 8.11501L4.28291 9.33125C4.23094 9.3704 4.20005 9.43309 4.20005 9.49996L4.20005 10.125C4.20005 10.1802 4.22112 10.2332 4.25862 10.2723C4.29612 10.3113 4.34702 10.3333 4.40005 10.3333L8.40008 10.3333L6.2824 11.5098C6.19552 11.5579 6.09856 11.5832 6.00006 11.5833L6.00004 11.5833ZM2.80001 6.16662L2.80001 5.74995L11.2001 5.74995L11.2001 6.16662C11.2001 6.22186 11.2211 6.27488 11.2586 6.31394C11.2961 6.353 11.347 6.37495 11.4001 6.37495L11.8001 6.37495L11.8001 8.45829L11.4001 8.45829C11.347 8.45829 11.2961 8.48024 11.2586 8.5193C11.2211 8.55836 11.2001 8.61137 11.2001 8.66662L11.2001 9.08329L5.29512 9.08329L6.13067 8.45438C6.16513 8.42983 6.19817 8.40304 6.22942 8.37421C6.47648 8.58989 6.79639 8.69295 7.1172 8.66011C7.438 8.62738 7.73265 8.46145 7.93471 8.19992C8.13676 7.9383 8.22936 7.60302 8.19149 7.26959C8.15363 6.93616 7.98854 6.63259 7.73345 6.42733C7.47836 6.22206 7.1548 6.1324 6.8355 6.17845C6.51621 6.22449 6.22818 6.4024 6.03621 6.67211C5.87585 6.58413 5.69559 6.54302 5.51451 6.55325C5.33352 6.56348 5.15862 6.62459 5.00827 6.73006L3.14379 8.04227L3.14379 8.04236C2.81513 8.05073 2.49263 8.1363 2.20013 8.29265L2.20013 6.37496L2.60013 6.37496C2.65317 6.37496 2.70406 6.35301 2.74156 6.31395C2.77906 6.27488 2.80013 6.22187 2.80013 6.16662L2.80001 6.16662ZM6.39661 7.01C6.38045 6.98507 6.36322 6.96126 6.34536 6.93811L6.34536 6.9382C6.47018 6.75274 6.66205 6.62829 6.87679 6.59334C7.09154 6.55839 7.31072 6.61594 7.48386 6.75285C7.65708 6.88975 7.7693 7.09408 7.79477 7.31897C7.8203 7.54385 7.75682 7.76987 7.61905 7.94499C7.48128 8.12003 7.28092 8.22923 7.0643 8.24735C6.84761 8.26548 6.63315 8.19089 6.47038 8.04097C6.6227 7.70792 6.59467 7.31589 6.39663 7.00999L6.39661 7.01ZM12.6001 4.91662L12.6001 9.91662L4.60003 9.91662L4.60003 9.60645L4.74155 9.49996L11.4001 9.49996C11.4531 9.49996 11.504 9.47801 11.5415 9.43895C11.579 9.39989 11.6001 9.34687 11.6001 9.29163L11.6001 8.87496L12.0001 8.87496C12.0532 8.87496 12.104 8.85301 12.1415 8.81395C12.179 8.77489 12.2001 8.72187 12.2001 8.66663L12.2001 6.16662C12.2001 6.05158 12.1106 5.95829 12.0001 5.95829L11.6001 5.95829L11.6001 5.54162C11.6001 5.42658 11.5106 5.33329 11.4001 5.33329L2.60004 5.33329C2.54701 5.33329 2.49611 5.35524 2.45861 5.3943C2.42111 5.43337 2.40004 5.48638 2.40004 5.54162L2.40004 5.95829L2.00004 5.95829C1.947 5.95829 1.89611 5.98024 1.85861 6.0193C1.82111 6.05837 1.80004 6.11138 1.80004 6.16662L1.80004 8.56734C1.64807 8.69839 1.51352 8.84989 1.40003 9.01796L1.40003 4.91653L12.6001 4.91662ZM11.6792 4.49995L11.2601 4.49995L11.0457 3.78669C11.0128 3.67685 10.9005 3.61574 10.7952 3.65006L10.4132 3.7746L10.2937 3.377C10.2778 3.32427 10.2426 3.28028 10.1955 3.2547C10.1485 3.22903 10.0937 3.22392 10.0431 3.24047L6.17976 4.49995L4.8402 4.49995L11.0688 2.46935L11.6792 4.49995Z"
        fill="black" />
</svg>