<svg width="14" height="14" viewBox="0 0 14 14" fill="none" xmlns="http://www.w3.org/2000/svg">
    <path fill-rule="evenodd" clip-rule="evenodd"
        d="M14 7V7.28509H13.9943C13.8447 11.0189 10.7705 14 7 14C3.13401 14 0 10.866 0 7C0 3.2295 2.9811 0.155264 6.71491 0.00569971V0H7H7.68626V0.0332117C11.0044 0.356073 13.6439 2.99562 13.9668 6.31374H14V7ZM13.1185 7.28509H7.40165L3.02638 11.6613C4.09602 12.574 5.48366 13.125 7 13.125C10.2872 13.125 12.9696 10.5355 13.1185 7.28509ZM2.33873 10.9736C1.42601 9.90398 0.875 8.51634 0.875 7C0.875 3.71281 3.46452 1.03044 6.71491 0.881517V6.59835L2.33873 10.9736ZM7.68626 0.913015V6.31374H13.087C12.771 3.47931 10.5207 1.22903 7.68626 0.913015Z"
        fill="#6C757D" />
</svg>