<svg width="14" height="14" viewBox="0 0 14 14" fill="none" xmlns="http://www.w3.org/2000/svg">
    <path fill-rule="evenodd" clip-rule="evenodd"
        d="M0.645917 3.64592C0.739721 3.55188 0.86709 3.49902 0.999917 3.49902C1.13274 3.49902 1.26011 3.55188 1.35392 3.64592L6.99992 9.29292L12.6459 3.64592C12.7724 3.51945 12.9567 3.47005 13.1295 3.51634C13.3023 3.56264 13.4372 3.69758 13.4835 3.87034C13.5298 4.04311 13.4804 4.22745 13.3539 4.35392L7.35392 10.3539C7.26011 10.448 7.13274 10.5008 6.99992 10.5008C6.86709 10.5008 6.73972 10.448 6.64592 10.3539L0.645917 4.35392C0.551876 4.26011 0.499023 4.13274 0.499023 3.99992C0.499023 3.86709 0.551876 3.73972 0.645917 3.64592Z"
        fill="#6C757D" />
</svg>