<svg width="14" height="14" viewBox="0 0 14 14" fill="none" xmlns="http://www.w3.org/2000/svg">
    <path fill-rule="evenodd" clip-rule="evenodd"
        d="M3.14689 12.8546C3.05285 12.7608 3 12.6334 3 12.5006C3 12.3677 3.05285 12.2404 3.14689 12.1466L8.79389 6.50057L3.14689 0.854571C3.02042 0.728099 2.97103 0.543762 3.01732 0.370998C3.06361 0.198234 3.19856 0.0632903 3.37132 0.0169983C3.54408 -0.0292937 3.72842 0.0200991 3.85489 0.146571L9.85489 6.14657C9.94894 6.24038 10.0018 6.36774 10.0018 6.50057C10.0018 6.6334 9.94894 6.76077 9.85489 6.85457L3.85489 12.8546C3.76109 12.9486 3.63372 13.0015 3.50089 13.0015C3.36807 13.0015 3.2407 12.9486 3.14689 12.8546Z"
        fill="#6C757D" />
</svg>