<svg width="14" height="14" viewBox="0 0 14 14" fill="none" xmlns="http://www.w3.org/2000/svg">
    <path fill-rule="evenodd" clip-rule="evenodd"
        d="M13.3541 10.3541C13.2603 10.4481 13.1329 10.501 13.0001 10.501C12.8673 10.501 12.7399 10.4481 12.6461 10.3541L7.00008 4.70708L1.35408 10.3541C1.22761 10.4806 1.04327 10.5299 0.87051 10.4837C0.697746 10.4374 0.562802 10.3024 0.51651 10.1297C0.470218 9.95689 0.51961 9.77255 0.646083 9.64608L6.64608 3.64608C6.73989 3.55204 6.86726 3.49919 7.00008 3.49919C7.13291 3.49919 7.26028 3.55204 7.35408 3.64608L13.3541 9.64608C13.4481 9.73989 13.501 9.86726 13.501 10.0001C13.501 10.1329 13.4481 10.2603 13.3541 10.3541Z"
        fill="#6C757D" />
</svg>