<svg width="14" height="14" viewBox="0 0 14 14" fill="none" xmlns="http://www.w3.org/2000/svg">
    <path
        d="M11.9006 2H5.48347C4.92686 2.0005 4.39323 2.22659 3.9999 2.62857L0.206999 6.49286C0.141408 6.55926 0.089347 6.63826 0.0538192 6.7253C0.0182915 6.81234 0 6.90571 0 7C0 7.09429 0.0182915 7.18766 0.0538192 7.2747C0.089347 7.36174 0.141408 7.44074 0.206999 7.50714L3.9999 11.3714C4.39323 11.7734 4.92686 11.9995 5.48347 12H11.9006C12.4574 12 12.9914 11.7742 13.3851 11.3724C13.7788 10.9705 14 10.4255 14 9.85714V4.14286C14 3.57454 13.7788 3.02949 13.3851 2.62763C12.9914 2.22576 12.4574 2 11.9006 2ZM12.6004 9.85714C12.6004 10.0466 12.5267 10.2283 12.3954 10.3622C12.2642 10.4962 12.0862 10.5714 11.9006 10.5714H5.48347C5.29819 10.5688 5.12072 10.4948 4.98661 10.3643L1.69057 7L4.98661 3.63571C5.12072 3.50519 5.29819 3.4312 5.48347 3.42857H11.9006C12.0862 3.42857 12.2642 3.50383 12.3954 3.63778C12.5267 3.77174 12.6004 3.95342 12.6004 4.14286V9.85714Z"
        fill="#777777" />
    <path
        d="M9.58665 5.05117C9.66773 5.08495 9.74132 5.13445 9.80318 5.19682C9.86555 5.25867 9.91505 5.33227 9.94883 5.41335C9.98261 5.49443 10 5.5814 10 5.66924C10 5.75708 9.98261 5.84405 9.94883 5.92513C9.91505 6.00621 9.86555 6.0798 9.80318 6.14166L8.93819 7L9.80318 7.85834C9.86555 7.9202 9.91505 7.99379 9.94883 8.07487C9.98261 8.15595 10 8.24292 10 8.33076C10 8.4186 9.98261 8.50557 9.94883 8.58665C9.91505 8.66773 9.86555 8.74133 9.80318 8.80318C9.74132 8.86555 9.66773 8.91505 9.58665 8.94883C9.50557 8.98261 9.4186 9 9.33076 9C9.24292 9 9.15595 8.98261 9.07487 8.94883C8.99379 8.91505 8.9202 8.86555 8.85834 8.80318L8 7.93819L7.14166 8.80318C7.0798 8.86555 7.00621 8.91505 6.92513 8.94883C6.84405 8.98261 6.75708 9 6.66924 9C6.5814 9 6.49443 8.98261 6.41335 8.94883C6.33227 8.91505 6.25867 8.86555 6.19682 8.80318C6.13445 8.74133 6.08495 8.66773 6.05117 8.58665C6.01739 8.50557 6 8.4186 6 8.33076C6 8.24292 6.01739 8.15595 6.05117 8.07487C6.08495 7.99379 6.13445 7.9202 6.19682 7.85834L7.06181 7L6.19682 6.14166C6.07153 6.01637 6.00114 5.84643 6.00114 5.66924C6.00114 5.49205 6.07153 5.32211 6.19682 5.19682C6.32211 5.07153 6.49205 5.00114 6.66924 5.00114C6.84643 5.00114 7.01637 5.07153 7.14166 5.19682L8 6.06181L8.85834 5.19682C8.9202 5.13445 8.99379 5.08495 9.07487 5.05117C9.15595 5.01739 9.24292 5 9.33076 5C9.4186 5 9.50557 5.01739 9.58665 5.05117Z"
        fill="#777777" />
</svg>