<svg width="14" height="14" viewBox="0 0 14 14" fill="none" xmlns="http://www.w3.org/2000/svg">
    <g clip-path="url(#clip0_2530_1872)">
        <path fill-rule="evenodd" clip-rule="evenodd"
            d="M7 1.5C3.96243 1.5 1.5 3.96243 1.5 7C1.5 10.0376 3.96243 12.5 7 12.5C10.0376 12.5 12.5 10.0376 12.5 7C12.5 3.96243 10.0376 1.5 7 1.5ZM0 7C0 3.13401 3.13401 0 7 0C10.866 0 14 3.13401 14 7C14 10.866 10.866 14 7 14C3.13401 14 0 10.866 0 7Z"
            fill="#777777" />
        <path fill-rule="evenodd" clip-rule="evenodd"
            d="M6.9998 2.7998C7.3864 2.7998 7.6998 3.11321 7.6998 3.4998V6.56718L9.64619 7.54037C9.99197 7.71326 10.1321 8.13374 9.95924 8.47952C9.78634 8.8253 9.36587 8.96546 9.02009 8.79257L6.68676 7.6259C6.44961 7.50733 6.2998 7.26494 6.2998 6.9998V3.4998C6.2998 3.11321 6.61321 2.7998 6.9998 2.7998Z"
            fill="#777777" />
    </g>
    <defs>
        <clipPath id="clip0_2530_1872">
            <rect width="14" height="14" fill="white" />
        </clipPath>
    </defs>
</svg>