<svg width="14" height="14" viewBox="0 0 14 14" fill="none" xmlns="http://www.w3.org/2000/svg">
    <path fill-rule="evenodd" clip-rule="evenodd"
        d="M0 1C0 0.447715 0.417868 0 0.933333 0H11.2C11.7155 0 12.1333 0.447715 12.1333 1V2H12.6C13.3732 2 14 2.67157 14 3.5V10.5C14 11.3284 13.3732 12 12.6 12H12.0867C11.8649 13.1642 10.909 14.0002 9.8 14H2.33333C1.71449 14 1.121 13.7366 0.683417 13.2678C0.245833 12.7989 0 12.163 0 11.5V1ZM12 11H12.7467C13.159 11 13.4933 10.7761 13.4933 10.5V3.5C13.4933 3.22386 13.159 3 12.7467 3H12V11ZM11.2 1H0.933333V11.5C0.933333 12.3284 1.56013 13 2.33333 13H9.8C10.5732 13 11.2 12.3284 11.2 11.5V1Z"
        fill="#6C757D" />
</svg>