<svg width="14" height="14" viewBox="0 0 14 14" fill="none" xmlns="http://www.w3.org/2000/svg">
    <path fill-rule="evenodd" clip-rule="evenodd"
        d="M7 0L8.4625 0.72L10.0906 0.955L10.8284 2.355L12 3.455L11.7319 5L12 6.545L10.8284 7.645L10.0906 9.045L8.4625 9.28L7 10L5.5375 9.28L3.90939 9.045L3.17157 7.645L2 6.545L2.26814 5L2 3.455L3.17157 2.355L3.90939 0.955L5.5375 0.72L7 0ZM8.16967 1.57612L9.47266 1.76405L10.0629 2.88428L11 3.76405L10.786 5L11 6.23595L10.0629 7.11572L9.47266 8.23595L8.17053 8.42388L7.00043 9L5.83119 8.42388L4.52821 8.23595L3.93798 7.11572L3 6.23595L3.21573 5L3.00086 3.76405L3.93798 2.88428L4.52821 1.76405L5.83119 1.57612L7.00043 1L8.16967 1.57612ZM2 14V11L4.5225 11.2183L7 11.9501L9.4775 11.2183L12 11V14L7 13.2867L2 14Z"
        fill="#6C757D" />
</svg>