<svg width="9" height="14" viewBox="0 0 9 14" fill="none" xmlns="http://www.w3.org/2000/svg">
    <path fill-rule="evenodd" clip-rule="evenodd"
        d="M6.99902 4.55H8.39902C8.39902 2.5641 6.47052 1.6583 4.89902 1.4497V0H3.49902V1.4497C1.92752 1.6583 -0.000976562 2.5641 -0.000976562 4.55C-0.000976562 6.4442 1.86522 7.4291 3.49902 7.651V11.13C2.48542 10.9543 1.39902 10.4132 1.39902 9.45H-0.000976562C-0.000976562 11.2623 1.69652 12.3333 3.49902 12.5552V13.2993V14H4.89902V13.2993V12.551C6.47052 12.3424 8.39902 11.4359 8.39902 9.45C8.39902 7.4641 6.47052 6.5583 4.89902 6.3497V2.87C5.83002 3.0373 6.99902 3.5287 6.99902 4.55ZM1.39902 4.55C1.39902 3.5287 2.56802 3.0373 3.49902 2.87V6.2293C2.53932 6.0522 1.39902 5.5279 1.39902 4.55ZM6.99902 9.45C6.99902 10.4713 5.83002 10.9627 4.89902 11.13V7.77C5.83002 7.9373 6.99902 8.4287 6.99902 9.45Z"
        fill="#6C757D" />
</svg>