<svg width="14" height="14" viewBox="0 0 14 14" fill="none" xmlns="http://www.w3.org/2000/svg">
    <g clip-path="url(#clip0_2530_1881)">
        <path
            d="M7.50047 9.63799H12.297L11.6468 8.93461C11.5526 8.83194 11.4997 8.69268 11.4997 8.54748C11.4997 8.40228 11.5526 8.26303 11.6468 8.16035C11.7409 8.05768 11.8687 8 12.0019 8C12.1351 8 12.2628 8.05768 12.357 8.16035L13.8574 9.79611C13.903 9.84796 13.9387 9.90911 13.9625 9.97604C14.0125 10.1088 14.0125 10.2577 13.9625 10.3904C13.9387 10.4574 13.903 10.5185 13.8574 10.5704L12.357 12.2061C12.3105 12.2572 12.2552 12.2978 12.1942 12.3255C12.1333 12.3532 12.0679 12.3674 12.0019 12.3674C11.9358 12.3674 11.8705 12.3532 11.8095 12.3255C11.7486 12.2978 11.6933 12.2572 11.6468 12.2061C11.5999 12.1554 11.5627 12.0951 11.5373 12.0287C11.5119 11.9622 11.4988 11.891 11.4988 11.819C11.4988 11.747 11.5119 11.6757 11.5373 11.6093C11.5627 11.5429 11.5999 11.4826 11.6468 11.4319L12.297 10.7285H7.50047C7.36782 10.7285 7.2406 10.7859 7.1468 10.8882C7.05301 10.9904 7.00031 11.1291 7.00031 11.2737V13.4547C7.00031 13.5994 6.94762 13.738 6.85382 13.8403C6.76002 13.9426 6.63281 14 6.50016 14C6.36751 14 6.24029 13.9426 6.14649 13.8403C6.05269 13.738 6 13.5994 6 13.4547V11.2737C6 10.8399 6.15808 10.4239 6.43948 10.1171C6.72087 9.81032 7.10252 9.63799 7.50047 9.63799Z"
            fill="#777777" />
        <path
            d="M6.1875 6.6C6.1875 6.44087 6.12824 6.28826 6.02275 6.17574C5.91726 6.06321 5.77418 6 5.625 6H2.8125C2.66332 6 2.52024 6.06321 2.41475 6.17574C2.30926 6.28826 2.25 6.44087 2.25 6.6C2.25 6.75913 2.30926 6.91174 2.41475 7.02426C2.52024 7.13679 2.66332 7.2 2.8125 7.2H5.625C5.77418 7.2 5.91726 7.13679 6.02275 7.02426C6.12824 6.91174 6.1875 6.75913 6.1875 6.6ZM4.5 10.8H1.6875C1.53832 10.8 1.39524 10.7368 1.28975 10.6243C1.18426 10.5117 1.125 10.3591 1.125 10.2V1.8C1.125 1.64087 1.18426 1.48826 1.28975 1.37574C1.39524 1.26321 1.53832 1.2 1.6875 1.2H4.5V3C4.5 3.47739 4.67779 3.93523 4.99426 4.27279C5.31072 4.61036 5.73995 4.8 6.1875 4.8H7.875V7.9C7.875 8.05913 7.93426 8.21174 8.03975 8.32426C8.14524 8.43679 8.28832 8.5 8.4375 8.5C8.58668 8.5 8.72976 8.43679 8.83525 8.32426C8.94074 8.21174 9 8.05913 9 7.9V4.2C9 4.2 9 4.2 9 4.164C8.99474 4.10878 8.98342 4.0544 8.96625 4.002V3.948C8.94067 3.88543 8.90443 3.82847 8.85938 3.78L5.48438 0.18C5.43788 0.13333 5.38471 0.0948486 5.32688 0.0659999H5.27625C5.22094 0.031502 5.15976 0.00906784 5.09625 0H1.6875C1.23995 0 0.810725 0.189642 0.494257 0.527208C0.17779 0.864773 0 1.32261 0 1.8V10.2C0 10.6774 0.17779 11.1352 0.494257 11.4728C0.810725 11.8104 1.23995 12 1.6875 12H4.5C4.64918 12 4.79226 11.9368 4.89775 11.8243C5.00324 11.7117 5.0625 11.5591 5.0625 11.4C5.0625 11.2409 5.00324 11.0883 4.89775 10.9757C4.79226 10.8632 4.64918 10.8 4.5 10.8ZM5.625 2.046L7.08187 3.6H6.1875C6.03832 3.6 5.89524 3.53679 5.78975 3.42426C5.68426 3.31174 5.625 3.15913 5.625 3V2.046ZM2.8125 4.8H3.375C3.52418 4.8 3.66726 4.73679 3.77275 4.62426C3.87824 4.51174 3.9375 4.35913 3.9375 4.2C3.9375 4.04087 3.87824 3.88826 3.77275 3.77574C3.66726 3.66321 3.52418 3.6 3.375 3.6H2.8125C2.66332 3.6 2.52024 3.66321 2.41475 3.77574C2.30926 3.88826 2.25 4.04087 2.25 4.2C2.25 4.35913 2.30926 4.51174 2.41475 4.62426C2.52024 4.73679 2.66332 4.8 2.8125 4.8ZM2.8125 8.4C2.66332 8.4 2.52024 8.46321 2.41475 8.57574C2.30926 8.68826 2.25 8.84087 2.25 9C2.25 9.15913 2.30926 9.31174 2.41475 9.42426C2.52024 9.53679 2.66332 9.6 2.8125 9.6H3.9375C4.08668 9.6 4.22976 9.53679 4.33525 9.42426C4.44074 9.31174 4.5 9.15913 4.5 9C4.5 8.84087 4.44074 8.68826 4.33525 8.57574C4.22976 8.46321 4.08668 8.4 3.9375 8.4H2.8125Z"
            fill="#777777" />
    </g>
    <defs>
        <clipPath id="clip0_2530_1881">
            <rect width="14" height="14" fill="white" />
        </clipPath>
    </defs>
</svg>