<svg width="14" height="14" viewBox="0 0 14 14" fill="none" xmlns="http://www.w3.org/2000/svg">
    <path fill-rule="evenodd" clip-rule="evenodd"
        d="M7.00012 2.88163L6.37273 2.2429C4.90006 0.743575 2.19972 1.26097 1.22495 3.14597C0.767306 4.03256 0.664053 5.31263 1.4997 6.94629C2.30473 8.51928 3.97953 10.4034 7.00012 12.4557C10.0207 10.4034 11.6946 8.51928 12.5005 6.94629C13.3362 5.31176 13.2338 4.03256 12.7753 3.14597C11.8005 1.26097 9.10019 0.742708 7.62752 2.24204L7.00012 2.88163ZM7.00012 13.5C-6.41666 4.71896 2.86912 -2.13462 6.84612 1.49064C6.89862 1.53831 6.95024 1.58771 7.00012 1.63884C7.04949 1.58775 7.10087 1.5386 7.15413 1.49151C11.1302 -2.13635 20.4169 4.71809 7.00012 13.5Z"
        fill="#6C757D" />
</svg>