<svg width="14" height="14" viewBox="0 0 14 14" fill="none" xmlns="http://www.w3.org/2000/svg">
    <path fill-rule="evenodd" clip-rule="evenodd"
        d="M7.1 0C5.1701 0 3.6 1.5701 3.6 3.5V5.6H2.9C2.1279 5.6 1.5 6.2279 1.5 7V12.6C1.5 13.3721 2.1279 14 2.9 14H11.3C12.0721 14 12.7 13.3721 12.7 12.6V7C12.7 6.2279 12.0721 5.6 11.3 5.6H10.6V3.5C10.6 1.5701 9.0299 0 7.1 0ZM11.3 7L11.3014 12.6H2.9V7H11.3ZM5 5.6V3.5C5 2.3422 5.9422 1.4 7.1 1.4C8.2578 1.4 9.2 2.3422 9.2 3.5V5.6H5Z"
        fill="#6C757D" />
</svg>