<svg width="14" height="14" viewBox="0 0 14 14" fill="none" xmlns="http://www.w3.org/2000/svg">
    <path fill-rule="evenodd" clip-rule="evenodd"
        d="M10.4997 14H3.49967C2.85567 14 2.33301 13.4773 2.33301 12.8333V1.16667C2.33301 0.522667 2.85567 0 3.49967 0H10.4997C11.1437 0 11.6663 0.522667 11.6663 1.16667V12.8333C11.6663 13.4773 11.1437 14 10.4997 14ZM11.083 11.0349H2.91634V12.8333C2.91634 13.1553 3.17826 13.4167 3.49967 13.4167H10.4997C10.8217 13.4167 11.083 13.1553 11.083 12.8333V11.0349ZM6.99967 12.7849C6.67709 12.7849 6.41634 12.5236 6.41634 12.2016C6.41634 11.8796 6.67709 11.6182 6.99967 11.6182C7.32167 11.6182 7.58242 11.8796 7.58242 12.2016C7.58242 12.5236 7.32167 12.7849 6.99967 12.7849ZM11.083 2.86825H2.91634V10.4516H11.083V2.86825ZM10.4997 0.583333H3.49967C3.17826 0.583333 2.91634 0.84525 2.91634 1.16667V2.28492H11.083V1.16667C11.083 0.84525 10.8217 0.583333 10.4997 0.583333ZM7.87467 1.70158H6.12467C5.96367 1.70158 5.83301 1.57092 5.83301 1.40992C5.83301 1.24892 5.96367 1.11825 6.12467 1.11825H7.87467C8.03567 1.11825 8.16634 1.24892 8.16634 1.40992C8.16634 1.57092 8.03567 1.70158 7.87467 1.70158Z"
        fill="#777777" />
</svg>