<svg width="14" height="14" viewBox="0 0 14 14" fill="none" xmlns="http://www.w3.org/2000/svg">
    <path
        d="M12.8902 7.62639C12.7694 7.41199 12.5594 7.24991 12.3067 7.17598C12.0539 7.10205 11.779 7.12228 11.5427 7.23225L8.75011 8.52562C8.75756 8.34808 8.70726 8.1725 8.60547 8.02067C8.50368 7.86884 8.35495 7.74751 8.17756 7.67165C4.54263 6.12459 5.13256 6.18124 2.99998 6.42356V6.22653C2.99998 6.16647 2.97369 6.10883 2.92682 6.06636C2.87986 6.02389 2.81633 6 2.75003 6H1.25003C1.11192 6 1 6.10147 1 6.22653V10.0771C1 10.1372 1.02637 10.1948 1.07324 10.2373C1.12012 10.2798 1.18373 10.3036 1.25003 10.3036H2.75003C2.81633 10.3036 2.87986 10.2798 2.92682 10.2373C2.97369 10.1948 2.99998 10.1372 2.99998 10.0771V9.85066C3.41248 9.85066 3.63999 9.8257 3.9425 9.95259C7.6925 11.4928 6.72243 11.5019 12.4576 8.84494C12.6931 8.73512 12.8709 8.54515 12.952 8.31664C13.0331 8.0882 13.0108 7.8399 12.8901 7.62634L12.8902 7.62639ZM2.50007 9.85077H1.50004V6.45314H2.50007V9.85077ZM12.2302 8.4419C7.85508 10.4669 7.89023 10.5304 7.18008 10.5304C6.81429 10.5466 6.44949 10.4846 6.1151 10.3491C3.58502 9.3095 4.00012 9.39778 3.00002 9.39778V6.87907C5.05256 6.65253 4.35253 6.54385 7.96246 8.07954H7.96255C8.08333 8.13103 8.1765 8.22409 8.2211 8.33814C8.26564 8.45221 8.2581 8.57765 8.20001 8.68655C8.14543 8.79629 8.0449 8.8819 7.9206 8.92438C7.79638 8.96685 7.65853 8.96283 7.53748 8.91308L5.56504 8.0614C5.44291 8.01795 5.30455 8.06739 5.24805 8.17455C5.19146 8.28179 5.23599 8.41035 5.35 8.46912L7.32253 9.3095C7.4783 9.37775 7.65133 9.40741 7.82385 9.3955C7.99645 9.38359 8.16244 9.33043 8.30499 9.24154L11.77 7.63563L11.7701 7.63556C11.929 7.56108 12.1198 7.5692 12.2704 7.65672C12.4211 7.74423 12.5088 7.89789 12.5004 8.05989C12.4921 8.22188 12.389 8.3675 12.23 8.44197L12.2302 8.4419Z"
        fill="black" />
    <path
        d="M6.18752 7H11.8125C11.8622 7 11.9099 6.97656 11.9451 6.93489C11.9802 6.89323 12 6.83668 12 6.77775V3.22225C12 3.16332 11.9802 3.10677 11.9451 3.06511C11.9099 3.02344 11.8622 3 11.8125 3H6.18752C6.084 3 6 3.09948 6 3.22225V6.77775C6 6.83668 6.01978 6.89323 6.05493 6.93489C6.09009 6.97656 6.1378 7 6.18752 7ZM7.10628 3.44431H10.8937C10.9304 3.65786 11.0193 3.85392 11.1493 4.00802C11.2794 4.16211 11.4447 4.26747 11.6249 4.311V5.68885C11.4447 5.73238 11.2794 5.83774 11.1493 5.99183C11.0193 6.14592 10.9304 6.34199 10.8937 6.55553H7.10628C7.0695 6.34199 6.9806 6.14593 6.85059 5.99183C6.72058 5.83773 6.55522 5.73238 6.37504 5.68885V4.311C6.55522 4.26747 6.72057 4.16211 6.85059 4.00802C6.9806 3.85392 7.0695 3.65786 7.10628 3.44431ZM6.37504 6.15103C6.53425 6.21822 6.65955 6.36673 6.71623 6.5555H6.37504V6.15103ZM11.2837 6.5555C11.3404 6.36673 11.4657 6.21821 11.6249 6.15103V6.5555H11.2837ZM11.6249 3.84878C11.4657 3.78159 11.3404 3.63308 11.2837 3.44431H11.6249V3.84878ZM6.71623 3.44431C6.65955 3.63308 6.53424 3.7816 6.37504 3.84878V3.44431H6.71623Z"
        fill="black" />
    <path
        d="M9 6C9.26526 6 9.51959 5.89466 9.70709 5.70709C9.89465 5.51958 10 5.26526 10 5C10 4.73474 9.89466 4.48041 9.70709 4.29291C9.51958 4.10535 9.26526 4 9 4C8.73474 4 8.48041 4.10534 8.29291 4.29291C8.10535 4.48042 8 4.73474 8 5C8 5.26526 8.10534 5.51959 8.29291 5.70709C8.48042 5.89465 8.73474 6 9 6ZM9 4.39999C9.15911 4.39999 9.31173 4.4632 9.4243 4.5757C9.5368 4.68827 9.60001 4.84089 9.60001 5C9.60001 5.15911 9.5368 5.31173 9.4243 5.4243C9.31173 5.5368 9.15911 5.60001 9 5.60001C8.84089 5.60001 8.68827 5.5368 8.5757 5.4243C8.4632 5.31173 8.39999 5.15911 8.39999 5C8.39999 4.84089 8.4632 4.68827 8.5757 4.5757C8.68827 4.4632 8.84089 4.39999 9 4.39999Z"
        fill="black" />
</svg>