<svg width="14" height="14" viewBox="0 0 14 14" fill="none" xmlns="http://www.w3.org/2000/svg">
    <path
        d="M12.8315 11.9884L10.6068 9.77999C11.4704 8.70246 11.8886 7.33476 11.7754 5.95814C11.6623 4.58151 11.0264 3.30059 9.9985 2.37875C8.97062 1.45692 7.62888 0.96424 6.24917 1.00202C4.86946 1.03981 3.55665 1.60518 2.58069 2.58189C1.60472 3.5586 1.03978 4.8724 1.00202 6.25316C0.964268 7.63392 1.45657 8.97668 2.37771 10.0053C3.29884 11.034 4.57879 11.6704 5.95437 11.7836C7.32996 11.8968 8.69661 11.4783 9.77332 10.6141L11.98 12.8225C12.0358 12.8787 12.1021 12.9234 12.1752 12.9538C12.2482 12.9843 12.3266 13 12.4058 13C12.4849 13 12.5633 12.9843 12.6364 12.9538C12.7094 12.9234 12.7758 12.8787 12.8315 12.8225C12.9396 12.7106 13 12.5611 13 12.4054C13 12.2498 12.9396 12.1003 12.8315 11.9884ZM6.40932 10.6141C5.57914 10.6141 4.76759 10.3678 4.07732 9.90618C3.38704 9.44461 2.84904 8.78855 2.53134 8.02097C2.21364 7.25339 2.13051 6.40877 2.29247 5.59392C2.45444 4.77906 2.85421 4.03057 3.44124 3.4431C4.02827 2.85562 4.7762 2.45554 5.59043 2.29346C6.40467 2.13137 7.24865 2.21456 8.01564 2.5325C8.78263 2.85044 9.4382 3.38885 9.89942 4.07965C10.3607 4.77045 10.6068 5.58262 10.6068 6.41343C10.6068 7.52753 10.1646 8.59599 9.37741 9.38377C8.59022 10.1716 7.52257 10.6141 6.40932 10.6141Z"
        fill="black" />
</svg>